<?xml version="1.0" encoding="UTF-8"?>
<svg xmlns="http://www.w3.org/2000/svg" xmlns:xlink="http://www.w3.org/1999/xlink" width="45px" height="45px" viewBox="0 0 45 45" version="1.1">
<g id="surface1">
<path style=" stroke:none;fill-rule:nonzero;fill:rgb(99.607843%,99.607843%,99.607843%);fill-opacity:1;" d="M 30.875 14.339844 C 31.554688 14.957031 31.554688 14.957031 31.644531 15.386719 C 31.570312 15.75 31.390625 15.976562 31.15625 16.25 C 31.113281 16.304688 31.066406 16.359375 31.023438 16.414062 C 30.882812 16.585938 30.742188 16.753906 30.601562 16.921875 C 30.511719 17.027344 30.425781 17.132812 30.335938 17.238281 C 28.949219 18.894531 28.949219 18.894531 28.644531 18.929688 C 28.273438 18.890625 28.152344 18.777344 27.878906 18.527344 C 26.355469 17.214844 24.738281 16.871094 22.769531 17.011719 C 21.1875 17.203125 19.800781 18.101562 18.832031 19.332031 C 17.863281 20.671875 17.46875 22.222656 17.714844 23.859375 C 17.980469 25.472656 18.742188 26.933594 20.070312 27.921875 C 21.449219 28.882812 23.0625 29.289062 24.734375 29.011719 C 24.945312 28.96875 25.152344 28.917969 25.359375 28.867188 C 25.457031 28.84375 25.550781 28.824219 25.648438 28.800781 C 25.757812 28.773438 25.863281 28.75 25.972656 28.722656 C 26.28125 28.710938 26.28125 28.710938 26.519531 28.824219 C 26.847656 29.207031 26.789062 29.589844 26.785156 30.078125 C 26.785156 30.179688 26.785156 30.277344 26.785156 30.378906 C 26.78125 30.585938 26.78125 30.796875 26.777344 31.003906 C 26.773438 31.324219 26.773438 31.644531 26.777344 31.964844 C 26.773438 32.167969 26.773438 32.371094 26.773438 32.570312 C 26.773438 32.667969 26.773438 32.765625 26.773438 32.863281 C 26.769531 32.953125 26.769531 33.039062 26.769531 33.132812 C 26.765625 33.210938 26.765625 33.289062 26.765625 33.367188 C 26.722656 33.613281 26.65625 33.691406 26.460938 33.839844 C 23.78125 34.605469 20.785156 34.164062 18.351562 32.855469 C 17.601562 32.433594 16.9375 31.914062 16.308594 31.324219 C 16.109375 31.136719 16.109375 31.136719 15.882812 30.964844 C 15.210938 30.410156 14.695312 29.617188 14.21875 28.890625 C 14.167969 28.8125 14.117188 28.730469 14.0625 28.652344 C 12.453125 26.050781 12.191406 22.941406 12.871094 20 C 13.609375 17.160156 15.59375 14.847656 18.070312 13.355469 C 22.105469 11.023438 27.265625 11.390625 30.875 14.339844 Z M 30.875 14.339844 "/>
<path style=" stroke:none;fill-rule:nonzero;fill:rgb(73.725492%,98.823529%,29.803923%);fill-opacity:1;" d="M 23.496094 20.867188 C 23.578125 20.863281 23.660156 20.863281 23.75 20.863281 C 24.023438 20.863281 24.300781 20.863281 24.578125 20.863281 C 24.769531 20.859375 24.960938 20.859375 25.152344 20.859375 C 25.554688 20.859375 25.960938 20.859375 26.363281 20.859375 C 26.878906 20.859375 27.394531 20.855469 27.910156 20.851562 C 28.308594 20.851562 28.703125 20.851562 29.101562 20.851562 C 29.289062 20.851562 29.480469 20.851562 29.671875 20.847656 C 29.9375 20.847656 30.203125 20.847656 30.46875 20.847656 C 30.546875 20.847656 30.625 20.847656 30.707031 20.84375 C 31.15625 20.847656 31.480469 20.886719 31.859375 21.148438 C 32.207031 21.542969 32.167969 21.972656 32.164062 22.46875 C 32.164062 22.601562 32.164062 22.601562 32.167969 22.734375 C 32.167969 23.023438 32.167969 23.308594 32.164062 23.597656 C 32.167969 23.796875 32.167969 23.996094 32.167969 24.195312 C 32.167969 24.617188 32.167969 25.035156 32.164062 25.453125 C 32.164062 25.992188 32.164062 26.527344 32.167969 27.066406 C 32.167969 27.480469 32.167969 27.890625 32.167969 28.304688 C 32.164062 28.503906 32.167969 28.703125 32.167969 28.898438 C 32.167969 29.175781 32.167969 29.453125 32.164062 29.730469 C 32.164062 29.8125 32.167969 29.894531 32.167969 29.976562 C 32.164062 30.410156 32.140625 30.699219 31.859375 31.050781 C 30.886719 31.925781 29.167969 33.011719 27.839844 33.15625 C 27.539062 33.121094 27.539062 33.121094 27.34375 32.980469 C 27.125 32.683594 27.128906 32.429688 27.132812 32.074219 C 27.128906 32.007812 27.128906 31.9375 27.128906 31.867188 C 27.125 31.640625 27.125 31.414062 27.125 31.1875 C 27.125 31.03125 27.121094 30.875 27.121094 30.71875 C 27.117188 30.304688 27.113281 29.894531 27.113281 29.480469 C 27.113281 29.058594 27.109375 28.640625 27.105469 28.21875 C 27.097656 27.390625 27.09375 26.566406 27.089844 25.738281 C 26.972656 25.738281 26.972656 25.738281 26.851562 25.738281 C 26.105469 25.734375 25.359375 25.726562 24.613281 25.71875 C 24.230469 25.714844 23.847656 25.710938 23.464844 25.707031 C 23.09375 25.707031 22.722656 25.703125 22.355469 25.699219 C 22.214844 25.695312 22.070312 25.695312 21.929688 25.695312 C 21.734375 25.695312 21.535156 25.691406 21.335938 25.6875 C 21.226562 25.6875 21.113281 25.6875 20.996094 25.6875 C 20.675781 25.648438 20.503906 25.578125 20.25 25.378906 C 20.109375 25.03125 20.117188 24.859375 20.253906 24.507812 C 20.390625 24.222656 20.539062 23.941406 20.695312 23.664062 C 20.75 23.566406 20.800781 23.464844 20.855469 23.363281 C 21.011719 23.074219 21.171875 22.785156 21.328125 22.5 C 21.40625 22.359375 21.480469 22.222656 21.554688 22.082031 C 22.074219 21.136719 22.394531 20.867188 23.496094 20.867188 Z M 23.496094 20.867188 "/>
<path style=" stroke:none;fill-rule:nonzero;fill:rgb(85.09804%,85.09804%,85.09804%);fill-opacity:1;" d="M 30.601562 36.269531 C 30.78125 36.359375 30.78125 36.359375 30.78125 36.359375 Z M 30.601562 36.269531 "/>
<path style=" stroke:none;fill-rule:nonzero;fill:rgb(85.882354%,85.882354%,85.882354%);fill-opacity:1;" d="M 14.21875 36.269531 C 14.398438 36.359375 14.398438 36.359375 14.398438 36.359375 Z M 14.21875 36.269531 "/>
<path style=" stroke:none;fill-rule:nonzero;fill:rgb(85.882354%,85.882354%,85.882354%);fill-opacity:1;" d="M 30.691406 9.628906 C 30.871094 9.71875 30.871094 9.71875 30.871094 9.71875 Z M 30.691406 9.628906 "/>
</g>
</svg>
